<?xml version="1.0" standalone="no"?>
<!DOCTYPE svg PUBLIC "-//W3C//DTD SVG 20010904//EN"
 "http://www.w3.org/TR/2001/REC-SVG-20010904/DTD/svg10.dtd">
<svg version="1.0" xmlns="http://www.w3.org/2000/svg"
 width="512.000000pt" height="512.000000pt" viewBox="0 0 512.000000 512.000000"
 preserveAspectRatio="xMidYMid meet">
<metadata>
Created by potrace 1.11, written by Peter Selinger 2001-2013
</metadata>
<g transform="translate(0.000000,512.000000) scale(0.100000,-0.100000)"
fill="#000000" stroke="none">
<path d="M490 2500 l0 -2240 2155 0 2155 0 0 2240 0 2240 -2155 0 -2155 0 0
-2240z m3150 1684 c1 -9 -26 -46 -408 -558 -150 -202 -221 -305 -217 -315 11
-27 265 -751 291 -831 14 -41 30 -84 34 -95 5 -11 16 -40 24 -65 8 -25 40
-117 71 -205 125 -353 215 -615 215 -624 0 -8 -65 -73 -174 -176 -18 -16 -129
-123 -247 -236 -118 -114 -232 -224 -254 -244 -22 -21 -86 -82 -143 -137
l-103 -100 -28 28 c-15 16 -75 74 -132 129 -58 55 -197 188 -309 296 -113 108
-261 251 -329 316 l-125 120 38 109 c21 60 85 244 143 409 57 165 120 345 139
400 20 55 46 129 59 165 13 36 41 117 63 180 22 63 77 220 122 349 45 128 78
236 73 240 -5 3 -56 71 -115 151 -59 80 -199 269 -312 420 l-206 275 37 5 c67
9 1793 3 1793 -6z"/>
</g>
</svg>
